<mxfile host="app.diagrams.net" modified="2023-02-21T07:55:45.645Z" agent="5.0 (Windows NT 10.0; Win64; x64) AppleWebKit/537.36 (KHTML, like Gecko) Chrome/109.0.0.0 Safari/537.36" etag="SDpKH2Cq2FT3SzXhdp15" version="20.8.20" type="github">
  <diagram name="Page-1" id="2YBvvXClWsGukQMizWep">
    <mxGraphModel dx="3134" dy="627" grid="1" gridSize="10" guides="1" tooltips="1" connect="1" arrows="1" fold="1" page="1" pageScale="1" pageWidth="2000" pageHeight="1100" math="0" shadow="0">
      <root>
        <mxCell id="0" />
        <mxCell id="1" parent="0" />
        <mxCell id="stTqnZfCxz-nPY7UzvfY-1" value="Actor" style="shape=umlActor;verticalLabelPosition=bottom;verticalAlign=top;html=1;outlineConnect=0;" vertex="1" parent="1">
          <mxGeometry x="50" y="240" width="30" height="60" as="geometry" />
        </mxCell>
        <mxCell id="stTqnZfCxz-nPY7UzvfY-2" value="log in page" style="shape=umlLifeline;perimeter=lifelinePerimeter;whiteSpace=wrap;html=1;container=0;dropTarget=0;collapsible=0;recursiveResize=0;outlineConnect=0;portConstraint=eastwest;newEdgeStyle={&quot;edgeStyle&quot;:&quot;elbowEdgeStyle&quot;,&quot;elbow&quot;:&quot;vertical&quot;,&quot;curved&quot;:0,&quot;rounded&quot;:0};" vertex="1" parent="1">
          <mxGeometry x="170" y="140" width="100" height="520" as="geometry" />
        </mxCell>
        <mxCell id="stTqnZfCxz-nPY7UzvfY-6" value="" style="html=1;points=[];perimeter=orthogonalPerimeter;outlineConnect=0;targetShapes=umlLifeline;portConstraint=eastwest;newEdgeStyle={&quot;edgeStyle&quot;:&quot;elbowEdgeStyle&quot;,&quot;elbow&quot;:&quot;vertical&quot;,&quot;curved&quot;:0,&quot;rounded&quot;:0};" vertex="1" parent="stTqnZfCxz-nPY7UzvfY-2">
          <mxGeometry x="45" y="100" width="10" height="400" as="geometry" />
        </mxCell>
        <mxCell id="stTqnZfCxz-nPY7UzvfY-3" value="Forgot password" style="shape=umlLifeline;perimeter=lifelinePerimeter;whiteSpace=wrap;html=1;container=0;dropTarget=0;collapsible=0;recursiveResize=0;outlineConnect=0;portConstraint=eastwest;newEdgeStyle={&quot;edgeStyle&quot;:&quot;elbowEdgeStyle&quot;,&quot;elbow&quot;:&quot;vertical&quot;,&quot;curved&quot;:0,&quot;rounded&quot;:0};" vertex="1" parent="1">
          <mxGeometry x="310" y="130" width="100" height="520" as="geometry" />
        </mxCell>
        <mxCell id="stTqnZfCxz-nPY7UzvfY-10" value="" style="html=1;points=[];perimeter=orthogonalPerimeter;outlineConnect=0;targetShapes=umlLifeline;portConstraint=eastwest;newEdgeStyle={&quot;edgeStyle&quot;:&quot;elbowEdgeStyle&quot;,&quot;elbow&quot;:&quot;vertical&quot;,&quot;curved&quot;:0,&quot;rounded&quot;:0};" vertex="1" parent="stTqnZfCxz-nPY7UzvfY-3">
          <mxGeometry x="45" y="110" width="10" height="90" as="geometry" />
        </mxCell>
        <mxCell id="stTqnZfCxz-nPY7UzvfY-7" value="" style="html=1;points=[];perimeter=orthogonalPerimeter;outlineConnect=0;targetShapes=umlLifeline;portConstraint=eastwest;newEdgeStyle={&quot;edgeStyle&quot;:&quot;elbowEdgeStyle&quot;,&quot;elbow&quot;:&quot;vertical&quot;,&quot;curved&quot;:0,&quot;rounded&quot;:0};" vertex="1" parent="stTqnZfCxz-nPY7UzvfY-3">
          <mxGeometry x="45" y="310" width="10" height="60" as="geometry" />
        </mxCell>
        <mxCell id="stTqnZfCxz-nPY7UzvfY-4" value="Verification" style="shape=umlLifeline;perimeter=lifelinePerimeter;whiteSpace=wrap;html=1;container=0;dropTarget=0;collapsible=0;recursiveResize=0;outlineConnect=0;portConstraint=eastwest;newEdgeStyle={&quot;edgeStyle&quot;:&quot;elbowEdgeStyle&quot;,&quot;elbow&quot;:&quot;vertical&quot;,&quot;curved&quot;:0,&quot;rounded&quot;:0};" vertex="1" parent="1">
          <mxGeometry x="440" y="140" width="100" height="520" as="geometry" />
        </mxCell>
        <mxCell id="stTqnZfCxz-nPY7UzvfY-9" value="" style="html=1;points=[];perimeter=orthogonalPerimeter;outlineConnect=0;targetShapes=umlLifeline;portConstraint=eastwest;newEdgeStyle={&quot;edgeStyle&quot;:&quot;elbowEdgeStyle&quot;,&quot;elbow&quot;:&quot;vertical&quot;,&quot;curved&quot;:0,&quot;rounded&quot;:0};" vertex="1" parent="stTqnZfCxz-nPY7UzvfY-4">
          <mxGeometry x="45" y="100" width="10" height="160" as="geometry" />
        </mxCell>
        <mxCell id="stTqnZfCxz-nPY7UzvfY-5" value="Database" style="shape=umlLifeline;perimeter=lifelinePerimeter;whiteSpace=wrap;html=1;container=0;dropTarget=0;collapsible=0;recursiveResize=0;outlineConnect=0;portConstraint=eastwest;newEdgeStyle={&quot;edgeStyle&quot;:&quot;elbowEdgeStyle&quot;,&quot;elbow&quot;:&quot;vertical&quot;,&quot;curved&quot;:0,&quot;rounded&quot;:0};" vertex="1" parent="1">
          <mxGeometry x="580" y="140" width="100" height="520" as="geometry" />
        </mxCell>
        <mxCell id="stTqnZfCxz-nPY7UzvfY-8" value="" style="html=1;points=[];perimeter=orthogonalPerimeter;outlineConnect=0;targetShapes=umlLifeline;portConstraint=eastwest;newEdgeStyle={&quot;edgeStyle&quot;:&quot;elbowEdgeStyle&quot;,&quot;elbow&quot;:&quot;vertical&quot;,&quot;curved&quot;:0,&quot;rounded&quot;:0};" vertex="1" parent="stTqnZfCxz-nPY7UzvfY-5">
          <mxGeometry x="45" y="100" width="10" height="290" as="geometry" />
        </mxCell>
        <mxCell id="stTqnZfCxz-nPY7UzvfY-11" value="log in to account" style="html=1;verticalAlign=bottom;startArrow=oval;startFill=1;endArrow=block;startSize=8;edgeStyle=elbowEdgeStyle;elbow=vertical;curved=0;rounded=0;" edge="1" parent="1" source="stTqnZfCxz-nPY7UzvfY-1" target="stTqnZfCxz-nPY7UzvfY-6">
          <mxGeometry width="60" relative="1" as="geometry">
            <mxPoint x="610" y="360" as="sourcePoint" />
            <mxPoint x="670" y="360" as="targetPoint" />
          </mxGeometry>
        </mxCell>
        <mxCell id="stTqnZfCxz-nPY7UzvfY-12" value="forgot password" style="html=1;verticalAlign=bottom;endArrow=block;edgeStyle=elbowEdgeStyle;elbow=vertical;curved=0;rounded=0;" edge="1" parent="1" source="stTqnZfCxz-nPY7UzvfY-6" target="stTqnZfCxz-nPY7UzvfY-10">
          <mxGeometry width="80" relative="1" as="geometry">
            <mxPoint x="600" y="360" as="sourcePoint" />
            <mxPoint x="680" y="360" as="targetPoint" />
            <Array as="points">
              <mxPoint x="320" y="290" />
            </Array>
          </mxGeometry>
        </mxCell>
        <mxCell id="stTqnZfCxz-nPY7UzvfY-13" value="re-enter password" style="html=1;verticalAlign=bottom;endArrow=block;edgeStyle=elbowEdgeStyle;elbow=vertical;curved=0;rounded=0;" edge="1" parent="1" source="stTqnZfCxz-nPY7UzvfY-10" target="stTqnZfCxz-nPY7UzvfY-6">
          <mxGeometry width="80" relative="1" as="geometry">
            <mxPoint x="600" y="360" as="sourcePoint" />
            <mxPoint x="680" y="360" as="targetPoint" />
            <Array as="points">
              <mxPoint x="290" y="330" />
            </Array>
          </mxGeometry>
        </mxCell>
        <mxCell id="stTqnZfCxz-nPY7UzvfY-14" value="verify log in details" style="html=1;verticalAlign=bottom;endArrow=block;edgeStyle=elbowEdgeStyle;elbow=vertical;curved=0;rounded=0;" edge="1" parent="1" source="stTqnZfCxz-nPY7UzvfY-2" target="stTqnZfCxz-nPY7UzvfY-4">
          <mxGeometry width="80" relative="1" as="geometry">
            <mxPoint x="600" y="360" as="sourcePoint" />
            <mxPoint x="680" y="360" as="targetPoint" />
            <Array as="points">
              <mxPoint x="430" y="360" />
              <mxPoint x="380" y="390" />
            </Array>
          </mxGeometry>
        </mxCell>
        <mxCell id="stTqnZfCxz-nPY7UzvfY-15" value="invalid log in details" style="html=1;verticalAlign=bottom;endArrow=open;dashed=1;endSize=8;edgeStyle=elbowEdgeStyle;elbow=vertical;curved=0;rounded=0;" edge="1" parent="1" source="stTqnZfCxz-nPY7UzvfY-9" target="stTqnZfCxz-nPY7UzvfY-6">
          <mxGeometry relative="1" as="geometry">
            <mxPoint x="680" y="360" as="sourcePoint" />
            <mxPoint x="600" y="360" as="targetPoint" />
            <Array as="points">
              <mxPoint x="390" y="390" />
            </Array>
          </mxGeometry>
        </mxCell>
        <mxCell id="stTqnZfCxz-nPY7UzvfY-16" value="valid log in details" style="html=1;verticalAlign=bottom;endArrow=block;edgeStyle=elbowEdgeStyle;elbow=vertical;curved=0;rounded=0;" edge="1" parent="1" source="stTqnZfCxz-nPY7UzvfY-4" target="stTqnZfCxz-nPY7UzvfY-8">
          <mxGeometry width="80" relative="1" as="geometry">
            <mxPoint x="600" y="360" as="sourcePoint" />
            <mxPoint x="680" y="360" as="targetPoint" />
            <Array as="points">
              <mxPoint x="590" y="290" />
            </Array>
          </mxGeometry>
        </mxCell>
        <mxCell id="stTqnZfCxz-nPY7UzvfY-17" value="check security O&#39;s" style="html=1;verticalAlign=bottom;endArrow=block;edgeStyle=elbowEdgeStyle;elbow=vertical;curved=0;rounded=0;" edge="1" parent="1" source="stTqnZfCxz-nPY7UzvfY-7" target="stTqnZfCxz-nPY7UzvfY-8">
          <mxGeometry width="80" relative="1" as="geometry">
            <mxPoint x="600" y="360" as="sourcePoint" />
            <mxPoint x="680" y="360" as="targetPoint" />
            <Array as="points">
              <mxPoint x="580" y="470" />
              <mxPoint x="550" y="450" />
            </Array>
          </mxGeometry>
        </mxCell>
        <mxCell id="stTqnZfCxz-nPY7UzvfY-18" value="" style="html=1;verticalAlign=bottom;endArrow=open;dashed=1;endSize=8;edgeStyle=elbowEdgeStyle;elbow=vertical;curved=0;rounded=0;" edge="1" parent="1" source="stTqnZfCxz-nPY7UzvfY-8" target="stTqnZfCxz-nPY7UzvfY-6">
          <mxGeometry relative="1" as="geometry">
            <mxPoint x="680" y="360" as="sourcePoint" />
            <mxPoint x="600" y="360" as="targetPoint" />
            <Array as="points">
              <mxPoint x="520" y="520" />
            </Array>
          </mxGeometry>
        </mxCell>
        <mxCell id="1YFrrPJFMDi00KkuxB1G-1" value="User" style="swimlane;fontStyle=1;align=center;verticalAlign=top;childLayout=stackLayout;horizontal=1;startSize=26;horizontalStack=0;resizeParent=1;resizeParentMax=0;resizeLast=0;collapsible=1;marginBottom=0;" vertex="1" parent="1">
          <mxGeometry x="-344" y="329" width="160" height="160" as="geometry" />
        </mxCell>
        <mxCell id="1YFrrPJFMDi00KkuxB1G-2" value="- user_password_ID&#xa;+ user_ID &#xa;+ user_name&#xa;+ user_email&#xa;+ total_balance" style="text;strokeColor=none;fillColor=none;align=left;verticalAlign=top;spacingLeft=4;spacingRight=4;overflow=hidden;rotatable=0;points=[[0,0.5],[1,0.5]];portConstraint=eastwest;" vertex="1" parent="1YFrrPJFMDi00KkuxB1G-1">
          <mxGeometry y="26" width="160" height="74" as="geometry" />
        </mxCell>
        <mxCell id="1YFrrPJFMDi00KkuxB1G-3" value="" style="line;strokeWidth=1;fillColor=none;align=left;verticalAlign=middle;spacingTop=-1;spacingLeft=3;spacingRight=3;rotatable=0;labelPosition=right;points=[];portConstraint=eastwest;strokeColor=inherit;" vertex="1" parent="1YFrrPJFMDi00KkuxB1G-1">
          <mxGeometry y="100" width="160" height="8" as="geometry" />
        </mxCell>
        <mxCell id="1YFrrPJFMDi00KkuxB1G-4" value="- modify_user()" style="text;strokeColor=none;fillColor=none;align=left;verticalAlign=top;spacingLeft=4;spacingRight=4;overflow=hidden;rotatable=0;points=[[0,0.5],[1,0.5]];portConstraint=eastwest;" vertex="1" parent="1YFrrPJFMDi00KkuxB1G-1">
          <mxGeometry y="108" width="160" height="52" as="geometry" />
        </mxCell>
        <mxCell id="1YFrrPJFMDi00KkuxB1G-6" value="Form" style="swimlane;fontStyle=1;align=center;verticalAlign=top;childLayout=stackLayout;horizontal=1;startSize=26;horizontalStack=0;resizeParent=1;resizeParentMax=0;resizeLast=0;collapsible=1;marginBottom=0;" vertex="1" parent="1">
          <mxGeometry x="-338" y="605" width="160" height="200" as="geometry" />
        </mxCell>
        <mxCell id="1YFrrPJFMDi00KkuxB1G-7" value="- form_id&#xa;+ form_date &#xa;+ entry_title&#xa;+ entry_value&#xa;+ entry_type (debit or credit)&#xa;+ entry_category&#xa;- last_modified_date" style="text;strokeColor=none;fillColor=none;align=left;verticalAlign=top;spacingLeft=4;spacingRight=4;overflow=hidden;rotatable=0;points=[[0,0.5],[1,0.5]];portConstraint=eastwest;" vertex="1" parent="1YFrrPJFMDi00KkuxB1G-6">
          <mxGeometry y="26" width="160" height="114" as="geometry" />
        </mxCell>
        <mxCell id="1YFrrPJFMDi00KkuxB1G-8" value="" style="line;strokeWidth=1;fillColor=none;align=left;verticalAlign=middle;spacingTop=-1;spacingLeft=3;spacingRight=3;rotatable=0;labelPosition=right;points=[];portConstraint=eastwest;strokeColor=inherit;" vertex="1" parent="1YFrrPJFMDi00KkuxB1G-6">
          <mxGeometry y="140" width="160" height="8" as="geometry" />
        </mxCell>
        <mxCell id="1YFrrPJFMDi00KkuxB1G-9" value="+ modify_form()&#xa;+ delete_form()" style="text;strokeColor=none;fillColor=none;align=left;verticalAlign=top;spacingLeft=4;spacingRight=4;overflow=hidden;rotatable=0;points=[[0,0.5],[1,0.5]];portConstraint=eastwest;" vertex="1" parent="1YFrrPJFMDi00KkuxB1G-6">
          <mxGeometry y="148" width="160" height="52" as="geometry" />
        </mxCell>
        <mxCell id="1YFrrPJFMDi00KkuxB1G-10" value="ML Model (optional)" style="swimlane;fontStyle=1;align=center;verticalAlign=top;childLayout=stackLayout;horizontal=1;startSize=26;horizontalStack=0;resizeParent=1;resizeParentMax=0;resizeLast=0;collapsible=1;marginBottom=0;" vertex="1" parent="1">
          <mxGeometry x="-122" y="631" width="160" height="100" as="geometry" />
        </mxCell>
        <mxCell id="1YFrrPJFMDi00KkuxB1G-11" value="- classifier" style="text;strokeColor=none;fillColor=none;align=left;verticalAlign=top;spacingLeft=4;spacingRight=4;overflow=hidden;rotatable=0;points=[[0,0.5],[1,0.5]];portConstraint=eastwest;" vertex="1" parent="1YFrrPJFMDi00KkuxB1G-10">
          <mxGeometry y="26" width="160" height="34" as="geometry" />
        </mxCell>
        <mxCell id="1YFrrPJFMDi00KkuxB1G-12" value="" style="line;strokeWidth=1;fillColor=none;align=left;verticalAlign=middle;spacingTop=-1;spacingLeft=3;spacingRight=3;rotatable=0;labelPosition=right;points=[];portConstraint=eastwest;strokeColor=inherit;" vertex="1" parent="1YFrrPJFMDi00KkuxB1G-10">
          <mxGeometry y="60" width="160" height="8" as="geometry" />
        </mxCell>
        <mxCell id="1YFrrPJFMDi00KkuxB1G-13" value="+ classify()" style="text;strokeColor=none;fillColor=none;align=left;verticalAlign=top;spacingLeft=4;spacingRight=4;overflow=hidden;rotatable=0;points=[[0,0.5],[1,0.5]];portConstraint=eastwest;" vertex="1" parent="1YFrrPJFMDi00KkuxB1G-10">
          <mxGeometry y="68" width="160" height="32" as="geometry" />
        </mxCell>
        <mxCell id="1YFrrPJFMDi00KkuxB1G-18" value="&lt;font style=&quot;font-size: 32px;&quot;&gt;*&lt;/font&gt;" style="endArrow=diamondThin;endFill=1;endSize=24;html=1;rounded=0;exitX=0.525;exitY=1;exitDx=0;exitDy=0;exitPerimeter=0;entryX=0.5;entryY=0;entryDx=0;entryDy=0;" edge="1" parent="1" source="1YFrrPJFMDi00KkuxB1G-4" target="1YFrrPJFMDi00KkuxB1G-6">
          <mxGeometry width="160" relative="1" as="geometry">
            <mxPoint x="-280" y="510" as="sourcePoint" />
            <mxPoint x="-120" y="510" as="targetPoint" />
          </mxGeometry>
        </mxCell>
        <mxCell id="1YFrrPJFMDi00KkuxB1G-21" style="edgeStyle=none;rounded=0;orthogonalLoop=1;jettySize=auto;html=1;entryX=0.994;entryY=0.372;entryDx=0;entryDy=0;entryPerimeter=0;endArrow=classic;endFill=1;exitX=0;exitY=0.5;exitDx=0;exitDy=0;" edge="1" parent="1" source="1YFrrPJFMDi00KkuxB1G-11" target="1YFrrPJFMDi00KkuxB1G-7">
          <mxGeometry relative="1" as="geometry" />
        </mxCell>
        <mxCell id="1YFrrPJFMDi00KkuxB1G-22" value="Preferences" style="swimlane;fontStyle=1;align=center;verticalAlign=top;childLayout=stackLayout;horizontal=1;startSize=26;horizontalStack=0;resizeParent=1;resizeParentMax=0;resizeLast=0;collapsible=1;marginBottom=0;" vertex="1" parent="1">
          <mxGeometry x="-560" y="429" width="160" height="160" as="geometry" />
        </mxCell>
        <mxCell id="1YFrrPJFMDi00KkuxB1G-23" value="+ enable_notifications&#xa;+ theme&#xa;+ currency_type&#xa;+ delete_history_frequency" style="text;strokeColor=none;fillColor=none;align=left;verticalAlign=top;spacingLeft=4;spacingRight=4;overflow=hidden;rotatable=0;points=[[0,0.5],[1,0.5]];portConstraint=eastwest;" vertex="1" parent="1YFrrPJFMDi00KkuxB1G-22">
          <mxGeometry y="26" width="160" height="74" as="geometry" />
        </mxCell>
        <mxCell id="1YFrrPJFMDi00KkuxB1G-24" value="" style="line;strokeWidth=1;fillColor=none;align=left;verticalAlign=middle;spacingTop=-1;spacingLeft=3;spacingRight=3;rotatable=0;labelPosition=right;points=[];portConstraint=eastwest;strokeColor=inherit;" vertex="1" parent="1YFrrPJFMDi00KkuxB1G-22">
          <mxGeometry y="100" width="160" height="8" as="geometry" />
        </mxCell>
        <mxCell id="1YFrrPJFMDi00KkuxB1G-25" value="- modify_preferences()&#xa;+ delete_all_history()" style="text;strokeColor=none;fillColor=none;align=left;verticalAlign=top;spacingLeft=4;spacingRight=4;overflow=hidden;rotatable=0;points=[[0,0.5],[1,0.5]];portConstraint=eastwest;" vertex="1" parent="1YFrrPJFMDi00KkuxB1G-22">
          <mxGeometry y="108" width="160" height="52" as="geometry" />
        </mxCell>
        <mxCell id="1YFrrPJFMDi00KkuxB1G-26" value="&lt;font style=&quot;font-size: 21px;&quot;&gt;1&lt;/font&gt;" style="endArrow=diamondThin;endFill=1;endSize=24;html=1;rounded=0;exitX=0;exitY=0.5;exitDx=0;exitDy=0;entryX=0.5;entryY=0;entryDx=0;entryDy=0;edgeStyle=orthogonalEdgeStyle;" edge="1" parent="1" source="1YFrrPJFMDi00KkuxB1G-2" target="1YFrrPJFMDi00KkuxB1G-22">
          <mxGeometry width="160" relative="1" as="geometry">
            <mxPoint x="-250" y="499" as="sourcePoint" />
            <mxPoint x="-250" y="590" as="targetPoint" />
          </mxGeometry>
        </mxCell>
        <mxCell id="1YFrrPJFMDi00KkuxB1G-27" value="Notifications" style="swimlane;fontStyle=1;align=center;verticalAlign=top;childLayout=stackLayout;horizontal=1;startSize=26;horizontalStack=0;resizeParent=1;resizeParentMax=0;resizeLast=0;collapsible=1;marginBottom=0;" vertex="1" parent="1">
          <mxGeometry x="-870" y="407" width="160" height="170" as="geometry" />
        </mxCell>
        <mxCell id="1YFrrPJFMDi00KkuxB1G-28" value="+ notification_id&#xa;+ frequency&#xa;+ type&#xa;+ title&#xa;+ content" style="text;strokeColor=none;fillColor=none;align=left;verticalAlign=top;spacingLeft=4;spacingRight=4;overflow=hidden;rotatable=0;points=[[0,0.5],[1,0.5]];portConstraint=eastwest;" vertex="1" parent="1YFrrPJFMDi00KkuxB1G-27">
          <mxGeometry y="26" width="160" height="84" as="geometry" />
        </mxCell>
        <mxCell id="1YFrrPJFMDi00KkuxB1G-29" value="" style="line;strokeWidth=1;fillColor=none;align=left;verticalAlign=middle;spacingTop=-1;spacingLeft=3;spacingRight=3;rotatable=0;labelPosition=right;points=[];portConstraint=eastwest;strokeColor=inherit;" vertex="1" parent="1YFrrPJFMDi00KkuxB1G-27">
          <mxGeometry y="110" width="160" height="8" as="geometry" />
        </mxCell>
        <mxCell id="1YFrrPJFMDi00KkuxB1G-30" value="+ delete_notification()&#xa;- create_notification()" style="text;strokeColor=none;fillColor=none;align=left;verticalAlign=top;spacingLeft=4;spacingRight=4;overflow=hidden;rotatable=0;points=[[0,0.5],[1,0.5]];portConstraint=eastwest;" vertex="1" parent="1YFrrPJFMDi00KkuxB1G-27">
          <mxGeometry y="118" width="160" height="52" as="geometry" />
        </mxCell>
        <mxCell id="1YFrrPJFMDi00KkuxB1G-31" style="edgeStyle=orthogonalEdgeStyle;rounded=0;orthogonalLoop=1;jettySize=auto;html=1;exitX=0;exitY=0.5;exitDx=0;exitDy=0;endArrow=none;endFill=0;" edge="1" parent="1" source="1YFrrPJFMDi00KkuxB1G-23" target="1YFrrPJFMDi00KkuxB1G-27">
          <mxGeometry relative="1" as="geometry" />
        </mxCell>
        <mxCell id="1YFrrPJFMDi00KkuxB1G-44" value="*" style="edgeLabel;html=1;align=center;verticalAlign=middle;resizable=0;points=[];fontSize=21;" connectable="0" vertex="1" parent="1YFrrPJFMDi00KkuxB1G-31">
          <mxGeometry x="-0.1919" relative="1" as="geometry">
            <mxPoint as="offset" />
          </mxGeometry>
        </mxCell>
        <mxCell id="1YFrrPJFMDi00KkuxB1G-37" style="edgeStyle=orthogonalEdgeStyle;rounded=0;orthogonalLoop=1;jettySize=auto;html=1;endArrow=none;endFill=0;" edge="1" parent="1" source="1YFrrPJFMDi00KkuxB1G-32" target="1YFrrPJFMDi00KkuxB1G-7">
          <mxGeometry relative="1" as="geometry" />
        </mxCell>
        <mxCell id="1YFrrPJFMDi00KkuxB1G-32" value="Summary" style="swimlane;fontStyle=1;align=center;verticalAlign=top;childLayout=stackLayout;horizontal=1;startSize=26;horizontalStack=0;resizeParent=1;resizeParentMax=0;resizeLast=0;collapsible=1;marginBottom=0;" vertex="1" parent="1">
          <mxGeometry x="-560" y="760" width="160" height="128" as="geometry" />
        </mxCell>
        <mxCell id="1YFrrPJFMDi00KkuxB1G-33" value="+ summary_id&#xa;+ summary_type&#xa;+ frequency" style="text;strokeColor=none;fillColor=none;align=left;verticalAlign=top;spacingLeft=4;spacingRight=4;overflow=hidden;rotatable=0;points=[[0,0.5],[1,0.5]];portConstraint=eastwest;" vertex="1" parent="1YFrrPJFMDi00KkuxB1G-32">
          <mxGeometry y="26" width="160" height="44" as="geometry" />
        </mxCell>
        <mxCell id="1YFrrPJFMDi00KkuxB1G-34" value="" style="line;strokeWidth=1;fillColor=none;align=left;verticalAlign=middle;spacingTop=-1;spacingLeft=3;spacingRight=3;rotatable=0;labelPosition=right;points=[];portConstraint=eastwest;strokeColor=inherit;" vertex="1" parent="1YFrrPJFMDi00KkuxB1G-32">
          <mxGeometry y="70" width="160" height="58" as="geometry" />
        </mxCell>
        <mxCell id="1YFrrPJFMDi00KkuxB1G-42" value="2" style="edgeStyle=orthogonalEdgeStyle;rounded=0;orthogonalLoop=1;jettySize=auto;html=1;fontSize=21;endArrow=none;endFill=0;" edge="1" parent="1" source="1YFrrPJFMDi00KkuxB1G-39" target="1YFrrPJFMDi00KkuxB1G-33">
          <mxGeometry relative="1" as="geometry" />
        </mxCell>
        <mxCell id="1YFrrPJFMDi00KkuxB1G-43" value="0...1" style="edgeLabel;html=1;align=center;verticalAlign=middle;resizable=0;points=[];fontSize=21;" connectable="0" vertex="1" parent="1YFrrPJFMDi00KkuxB1G-42">
          <mxGeometry x="0.0385" y="-2" relative="1" as="geometry">
            <mxPoint x="-1" as="offset" />
          </mxGeometry>
        </mxCell>
        <mxCell id="1YFrrPJFMDi00KkuxB1G-39" value="Graph" style="swimlane;fontStyle=1;align=center;verticalAlign=top;childLayout=stackLayout;horizontal=1;startSize=26;horizontalStack=0;resizeParent=1;resizeParentMax=0;resizeLast=0;collapsible=1;marginBottom=0;" vertex="1" parent="1">
          <mxGeometry x="-760" y="620" width="160" height="128" as="geometry" />
        </mxCell>
        <mxCell id="1YFrrPJFMDi00KkuxB1G-40" value="+ graph_id&#xa;+ time_period" style="text;strokeColor=none;fillColor=none;align=left;verticalAlign=top;spacingLeft=4;spacingRight=4;overflow=hidden;rotatable=0;points=[[0,0.5],[1,0.5]];portConstraint=eastwest;" vertex="1" parent="1YFrrPJFMDi00KkuxB1G-39">
          <mxGeometry y="26" width="160" height="44" as="geometry" />
        </mxCell>
        <mxCell id="1YFrrPJFMDi00KkuxB1G-41" value="" style="line;strokeWidth=1;fillColor=none;align=left;verticalAlign=middle;spacingTop=-1;spacingLeft=3;spacingRight=3;rotatable=0;labelPosition=right;points=[];portConstraint=eastwest;strokeColor=inherit;" vertex="1" parent="1YFrrPJFMDi00KkuxB1G-39">
          <mxGeometry y="70" width="160" height="58" as="geometry" />
        </mxCell>
        <mxCell id="1YFrrPJFMDi00KkuxB1G-47" style="edgeStyle=orthogonalEdgeStyle;rounded=0;orthogonalLoop=1;jettySize=auto;html=1;exitX=1;exitY=0.5;exitDx=0;exitDy=0;entryX=-0.009;entryY=0.061;entryDx=0;entryDy=0;entryPerimeter=0;strokeWidth=1;fontSize=21;endArrow=none;endFill=0;" edge="1" parent="1" source="1YFrrPJFMDi00KkuxB1G-40" target="1YFrrPJFMDi00KkuxB1G-6">
          <mxGeometry relative="1" as="geometry" />
        </mxCell>
        <mxCell id="1YFrrPJFMDi00KkuxB1G-49" value="&lt;ul&gt;&lt;li&gt;Form (debit/credit)&lt;/li&gt;&lt;li&gt;settings/preferences&lt;/li&gt;&lt;ul&gt;&lt;li&gt;history delete after how much time?&lt;/li&gt;&lt;/ul&gt;&lt;li&gt;profile&lt;/li&gt;&lt;li&gt;Brief summary&lt;/li&gt;&lt;ul&gt;&lt;li&gt;frequency: day, week, month&lt;/li&gt;&lt;li&gt;graph: pie_chart (category_wise distribution)&lt;/li&gt;&lt;li&gt;2 graphs: expense/credit&amp;nbsp;&lt;/li&gt;&lt;li&gt;&lt;br&gt;&lt;/li&gt;&lt;/ul&gt;&lt;li&gt;Detailed Summary&lt;/li&gt;&lt;ul&gt;&lt;li&gt;graphs: pie_charts&lt;/li&gt;&lt;li&gt;stats:&lt;/li&gt;&lt;ul&gt;&lt;li&gt;total_expense - total_credit&lt;/li&gt;&lt;li&gt;rate of expense&lt;/li&gt;&lt;/ul&gt;&lt;li&gt;history&lt;/li&gt;&lt;/ul&gt;&lt;li&gt;form:&lt;/li&gt;&lt;ul&gt;&lt;li&gt;amount&lt;/li&gt;&lt;li&gt;type of transaction&lt;/li&gt;&lt;li&gt;title (what was it spent on)&lt;/li&gt;&lt;li&gt;category&lt;/li&gt;&lt;/ul&gt;&lt;li&gt;form modify:&lt;/li&gt;&lt;ul&gt;&lt;li&gt;in addition to &lt;b&gt;form&lt;/b&gt;&lt;/li&gt;&lt;li&gt;date_time&lt;/li&gt;&lt;/ul&gt;&lt;li&gt;templates&lt;/li&gt;&lt;ul&gt;&lt;li&gt;pre-filled form&lt;/li&gt;&lt;/ul&gt;&lt;li&gt;AI classifier&lt;/li&gt;&lt;ul&gt;&lt;li&gt;scikitLearn&lt;/li&gt;&lt;/ul&gt;&lt;li&gt;&lt;br&gt;&lt;/li&gt;&lt;/ul&gt;" style="rounded=0;whiteSpace=wrap;html=1;fontSize=21;align=left;" vertex="1" parent="1">
          <mxGeometry x="-1550" y="352" width="460" height="798" as="geometry" />
        </mxCell>
      </root>
    </mxGraphModel>
  </diagram>
</mxfile>
